# xmcd
#
# Track frame offsets: 
#        16953
#        33528
#        54380
#        69840
#        82310
#        98205
#        106533
#        123250
#        134653
#        153003
#        163563
#        178660
#        193918
#        205583
#        217465
#        227883
#
# Disc length: 3273 seconds
#
# Revision: 7
# Processed by: cddbd v1.5.1PL0 Copyright (c) Steve Scherf et al.
# Submitted via: ExactAudioCopy v0.95a5
#
DISCID=e90be710
DTITLE=Various Artist - Twisted Willie
DYEAR=1996
DGENRE=Country
TTITLE0=Johnny Cash - Time Of The Preacher
TTITLE1=L7 - Three Days
TTITLE2=Tenderloin - Shotgun Willie
TTITLE3=Supersuckers - Bloody Mary Morning
TTITLE4=Mark Lanegan - She's Not For You
TTITLE5=The Presidents Of The United States Of America - Devil In A Sl
TTITLE5=eepin' Bag
TTITLE6=Jerry Cantrell - I've Seen All This World I Care To See
TTITLE7=Best Kissers In The World - Pick Up The Tempo
TTITLE8=Jello Biafra with Life After Life - Still Is Still Moving To M
TTITLE8=e
TTITLE9=Waylon Jennings - I Never Cared For You
TTITLE10=The Reverend Horton Heat - Hello Walls
TTITLE11=Gas Huffer - I Gotta Get Drunk
TTITLE12=Steel Pole Bath Tub - The Ghost
TTITLE13=Jesse Dayton - Sad Songs And Waltzes
TTITLE14=X - Home Motel
TTITLE15=Kelley Deal with Kris Kristofferson - Angel Flying Too Close 
TTITLE15=To The Ground
EXTD=LABEL =Justice Records\nID =JR0009-2\nUPC =71948-80009-20\nCOP
EXTD=YRIGHT =1996 YEAR: 1996 ID3G: 2
EXTT0=Johnny Cash
EXTT1=L7
EXTT2=Tenderloin
EXTT3=Supersuckers
EXTT4=Mark Lanegan
EXTT5=The Presidentes Of The U.S.A.
EXTT6=Jerry Cantrell
EXTT7=Best Kissers In The World
EXTT8=Jello Biafra w/ Life After Life
EXTT9=Waylon Jennings
EXTT10=The REverend Horton Heat
EXTT11=Gas Huffer
EXTT12=Steel Pole Bath Tub
EXTT13=Jesse Dayton
EXTT14=X
EXTT15=Kelley Deal w/ Kris Kristofferson
PLAYORDER=
